<svg xmlns="http://www.w3.org/2000/svg" width="400" height="186" viewBox="0 0 400 186" font-family="'Cascadia Code', 'Fira Code', Consolas, monospace">
  <defs>
    <clipPath id="clip0"><rect x="0" y="43" width="0" height="19">
      <animate id="rev0" attributeName="width" from="0" to="254" dur="0.79s" begin="winIn.end" fill="freeze" calcMode="linear" />
    </rect></clipPath>
    <clipPath id="clip1"><rect x="0" y="65" width="0" height="19">
      <animate id="rev1" attributeName="width" from="0" to="243" dur="0.76s" begin="rev0.end" fill="freeze" calcMode="linear" />
    </rect></clipPath>
    <clipPath id="clip2"><rect x="0" y="87" width="0" height="19">
      <animate id="rev2" attributeName="width" from="0" to="260" dur="0.81s" begin="rev1.end" fill="freeze" calcMode="linear" />
    </rect></clipPath>
    <clipPath id="clip3"><rect x="0" y="109" width="0" height="19">
      <animate id="rev3" attributeName="width" from="0" to="218" dur="0.68s" begin="rev2.end" fill="freeze" calcMode="linear" />
    </rect></clipPath>
    <clipPath id="clip4"><rect x="0" y="131" width="0" height="19">
      <animate id="rev4" attributeName="width" from="0" to="243" dur="0.76s" begin="rev3.end" fill="freeze" calcMode="linear" />
    </rect></clipPath>
  </defs>
  <g opacity="0">
    <animate id="winIn" attributeName="opacity" from="0" to="1" dur="0.35s" begin="0s" fill="freeze" />
    <rect x="0.5" y="0.5" width="399" height="185" rx="8" fill="#0c0c0c" stroke="#2b2b2b" />
    
    <rect x="0.5" y="0.5" width="399" height="31" rx="8" fill="#1f1f1f" />
    <rect x="0.5" y="23" width="399" height="8" fill="#1f1f1f" />
    <rect x="16" y="11" width="5" height="5" fill="#1e8e56" />
    <rect x="23" y="11" width="5" height="5" fill="#8a8a8a" />
    <rect x="16" y="18" width="5" height="5" fill="#8a8a8a" />
    <rect x="23" y="18" width="5" height="5" fill="#1e8e56" />
    <text x="38" y="21" font-size="12" fill="#e6e6e6">Windows PowerShell</text>
    <line x1="338" y1="16" x2="349" y2="16" stroke="#8a8a8a" stroke-width="1.2" />
    <rect x="360" y="10" width="11" height="11" fill="none" stroke="#8a8a8a" stroke-width="1.2" />
    <line x1="376" y1="10" x2="387" y2="21" stroke="#8a8a8a" stroke-width="1.2" />
    <line x1="387" y1="10" x2="376" y2="21" stroke="#8a8a8a" stroke-width="1.2" />
  </g>
  <g clip-path="url(#clip0)"><text x="16" y="58" font-size="13"><tspan fill="#1e8e56">PS C:\Users\luciano&gt;</tspan><tspan fill="#e6e6e6"> whoami</tspan></text></g>
  <g clip-path="url(#clip1)"><text x="16" y="80" font-size="13"><tspan fill="#1e8e56">os</tspan><tspan fill="#8a8a8a">:</tspan><tspan fill="#e6e6e6" x="130">Windows 11</tspan></text></g>
  <g clip-path="url(#clip2)"><text x="16" y="102" font-size="13"><tspan fill="#1e8e56">shell</tspan><tspan fill="#8a8a8a">:</tspan><tspan fill="#e6e6e6" x="130">PowerShell 7</tspan></text></g>
  <g clip-path="url(#clip3)"><text x="16" y="124" font-size="13"><tspan fill="#1e8e56">editor</tspan><tspan fill="#8a8a8a">:</tspan><tspan fill="#e6e6e6" x="130">VS Code</tspan></text></g>
  <g clip-path="url(#clip4)"><text x="16" y="146" font-size="13"><tspan fill="#1e8e56">top_lang</tspan><tspan fill="#8a8a8a">:</tspan><tspan fill="#e6e6e6" x="130">JavaScript</tspan></text></g>
  <rect x="235" y="134" width="7" height="14" fill="#1e8e56" opacity="0">
    <animate attributeName="opacity" values="1;0" calcMode="discrete" dur="1s" begin="rev4.end" repeatCount="indefinite" />
  </rect>
</svg>