<svg xmlns="http://www.w3.org/2000/svg" width="355" height="156" viewBox="0 0 355 156" font-family="'Cascadia Code', 'Fira Code', Consolas, monospace">
  <rect x="0.5" y="0.5" width="354" height="155" rx="10" fill="#0c0c0c" stroke="#2b2b2b" />
  <style>
    .title { font-size: 15px; font-weight: 600; fill: #1e8e56; }
    .label { font-size: 12px; fill: #8a8a8a; }
    .value { font-size: 12px; font-weight: 600; fill: #e6e6e6; }
  </style>
  <text x="20" y="28" class="title">Most Used Languages</text>
  <rect x="20" y="48" width="315" height="8" rx="4" fill="#1f1f1f" />
  <rect x="20" y="48" width="91.54203982469512" height="8" fill="#1e8e56" />
  <rect x="111.54203982469512" y="48" width="85.47506192835367" height="8" fill="#3fb27f" />
  <rect x="197.0171017530488" y="48" width="46.49587938262195" height="8" fill="#6fcf9e" />
  <rect x="243.51298113567074" y="48" width="37.512623856707314" height="8" fill="#a3e0bf" />
  <rect x="281.0256049923781" y="48" width="32.646436737804876" height="8" fill="#e6e6e6" />
  <rect x="313.67204173018297" y="48" width="21.327958269817074" height="8" fill="#8a8a8a" />
  <circle cx="20" cy="76" r="5" fill="#1e8e56" /><text x="32" y="80" class="label">JavaScript <tspan fill="#8a8a8a">29.1%</tspan></text>
  <circle cx="190" cy="76" r="5" fill="#3fb27f" /><text x="202" y="80" class="label">TypeScript <tspan fill="#8a8a8a">27.1%</tspan></text>
  <circle cx="20" cy="98" r="5" fill="#6fcf9e" /><text x="32" y="102" class="label">Python <tspan fill="#8a8a8a">14.8%</tspan></text>
  <circle cx="190" cy="98" r="5" fill="#a3e0bf" /><text x="202" y="102" class="label">PHP <tspan fill="#8a8a8a">11.9%</tspan></text>
  <circle cx="20" cy="120" r="5" fill="#e6e6e6" /><text x="32" y="124" class="label">CSS <tspan fill="#8a8a8a">10.4%</tspan></text>
  <circle cx="190" cy="120" r="5" fill="#8a8a8a" /><text x="202" y="124" class="label">Blade <tspan fill="#8a8a8a">6.8%</tspan></text>
</svg>